# MagicaVoxel @ Ephtracy

# group
o 

# material
mtllib PistolAmmoBox.mtl
usemtl palette

# normals
vn -1 0 0
vn 1 0 0
vn 0 0 1
vn 0 0 -1
vn 0 -1 0
vn 0 1 0

# texcoords
vt 0.0449219 0.5
vt 0.306641 0.5
vt 0.853516 0.5
vt 0.986328 0.5
vt 0.994141 0.5

# verts
v -1.2 0 0.6
v -1.2 0 -0.7
v -1.2 0.1 0.5
v -1.2 0.1 -0.6
v -1.2 0.2 0.4
v -1.2 0.2 0.1
v -1.2 0.2 -0.3
v -1.2 0.2 -0.5
v -1.2 0.3 0.1
v -1.2 0.3 5.96046e-08
v -1.2 0.3 -0.1
v -1.2 0.3 -0.3
v -1.2 0.4 0.1
v -1.2 0.4 5.96046e-08
v -1.2 0.4 -0.1
v -1.2 0.4 -0.5
v -1.2 0.5 5.96046e-08
v -1.2 0.5 -0.5
v -1.2 0.6 0.4
v -1.2 0.6 0.1
v -1.2 0.6 5.96046e-08
v -1.2 0.6 -0.5
v -1.2 0.7 0.5
v -1.2 0.7 -0.6
v -1.2 0.8 0.6
v -1.2 0.8 -0.7
v -0.4 0.9 0.6
v -0.4 0.9 -0.7
v -0.4 1 0.6
v -0.4 1 -0.7
v 0.2 0.8 0.6
v 0.2 0.8 0.5
v 0.2 0.8 -0.6
v 0.2 0.8 -0.7
v 0.2 0.9 0.6
v 0.2 0.9 0.5
v 0.2 0.9 -0.6
v 0.2 0.9 -0.7
v 0.7 0.5 0.5
v 0.7 0.5 0.3
v 0.7 0.5 0.2
v 0.7 0.5 5.96046e-08
v 0.7 0.5 -0.1
v 0.7 0.5 -0.3
v 0.7 0.5 -0.4
v 0.7 0.5 -0.6
v 0.7 0.7 0.5
v 0.7 0.7 0.3
v 0.7 0.7 0.2
v 0.7 0.7 5.96046e-08
v 0.7 0.7 -0.1
v 0.7 0.7 -0.3
v 0.7 0.7 -0.4
v 0.7 0.7 -0.6
v 1 0.5 0.5
v 1 0.5 0.3
v 1 0.5 0.2
v 1 0.5 5.96046e-08
v 1 0.5 -0.1
v 1 0.5 -0.3
v 1 0.5 -0.4
v 1 0.5 -0.6
v 1 0.7 0.5
v 1 0.7 0.3
v 1 0.7 0.2
v 1 0.7 5.96046e-08
v 1 0.7 -0.1
v 1 0.7 -0.3
v 1 0.7 -0.4
v 1 0.7 -0.6
v 1.2 0.5 0.3
v 1.2 0.5 0.2
v 1.2 0.5 5.96046e-08
v 1.2 0.5 -0.1
v 1.2 0.5 -0.3
v 1.2 0.5 -0.4
v 1.2 0.6 0.3
v 1.2 0.6 0.2
v 1.2 0.6 5.96046e-08
v 1.2 0.6 -0.1
v 1.2 0.6 -0.3
v 1.2 0.6 -0.4
v 0.3 0.9 0.6
v 0.3 0.9 0.5
v 0.3 0.9 -0.6
v 0.3 0.9 -0.7
v 0.3 1 0.6
v 0.3 1 0.5
v 0.3 1 -0.6
v 0.3 1 -0.7
v 0.4 0.8 0.6
v 0.4 0.8 0.5
v 0.4 0.8 -0.6
v 0.4 0.8 -0.7
v 0.4 0.9 0.6
v 0.4 0.9 0.5
v 0.4 0.9 -0.6
v 0.4 0.9 -0.7
v 0.5 0.5 0.3
v 0.5 0.5 0.2
v 0.5 0.5 5.96046e-08
v 0.5 0.5 -0.1
v 0.5 0.5 -0.3
v 0.5 0.5 -0.4
v 0.5 0.7 0.5
v 0.5 0.7 0.3
v 0.5 0.7 0.2
v 0.5 0.7 5.96046e-08
v 0.5 0.7 -0.1
v 0.5 0.7 -0.3
v 0.5 0.7 -0.4
v 0.5 0.7 -0.6
v 0.5 0.8 0.5
v 0.5 0.8 -0.6
v 0.6 0.5 0.5
v 0.6 0.5 0.3
v 0.6 0.5 0.2
v 0.6 0.5 5.96046e-08
v 0.6 0.5 -0.1
v 0.6 0.5 -0.3
v 0.6 0.5 -0.4
v 0.6 0.5 -0.6
v 0.6 0.7 0.5
v 0.6 0.7 0.3
v 0.6 0.7 0.2
v 0.6 0.7 5.96046e-08
v 0.6 0.7 -0.1
v 0.6 0.7 -0.3
v 0.6 0.7 -0.4
v 0.6 0.7 -0.6
v 0.9 0.5 0.5
v 0.9 0.5 0.3
v 0.9 0.5 0.2
v 0.9 0.5 5.96046e-08
v 0.9 0.5 -0.1
v 0.9 0.5 -0.3
v 0.9 0.5 -0.4
v 0.9 0.5 -0.6
v 0.9 0.7 0.5
v 0.9 0.7 0.3
v 0.9 0.7 0.2
v 0.9 0.7 5.96046e-08
v 0.9 0.7 -0.1
v 0.9 0.7 -0.3
v 0.9 0.7 -0.4
v 0.9 0.7 -0.6
v 1.2 0.6 0.5
v 1.2 0.6 0.3
v 1.2 0.6 0.2
v 1.2 0.6 5.96046e-08
v 1.2 0.6 -0.1
v 1.2 0.6 -0.3
v 1.2 0.6 -0.4
v 1.2 0.6 -0.6
v 1.2 0.7 0.5
v 1.2 0.7 0.3
v 1.2 0.7 0.2
v 1.2 0.7 5.96046e-08
v 1.2 0.7 -0.1
v 1.2 0.7 -0.3
v 1.2 0.7 -0.4
v 1.2 0.7 -0.6
v 1.3 0 0.6
v 1.3 0 -0.7
v 1.3 0.1 0.5
v 1.3 0.1 -0.6
v 1.3 0.3 0.1
v 1.3 0.3 5.96046e-08
v 1.3 0.3 -0.1
v 1.3 0.3 -0.2
v 1.3 0.4 0.1
v 1.3 0.4 5.96046e-08
v 1.3 0.4 -0.1
v 1.3 0.4 -0.2
v 1.3 0.5 0.5
v 1.3 0.5 5.96046e-08
v 1.3 0.5 -0.1
v 1.3 0.5 -0.6
v 1.3 0.6 0.5
v 1.3 0.6 -0.6
v 1.3 0.8 0.6
v 1.3 0.8 0.5
v 1.3 0.8 -0.6
v 1.3 0.8 -0.7
v -1.2 0 0.6
v -1.2 0.8 0.6
v -1.1 0.1 0.6
v -1.1 0.7 0.6
v -0.4 0.9 0.6
v -0.4 1 0.6
v 0.2 0.8 0.6
v 0.2 0.9 0.6
v 0.3 0.9 0.6
v 0.3 1 0.6
v 0.4 0.8 0.6
v 0.4 0.9 0.6
v 1.2 0.1 0.6
v 1.2 0.7 0.6
v 1.3 0 0.6
v 1.3 0.8 0.6
v 0.5 0.5 0.2
v 0.5 0.7 0.2
v 0.6 0.5 0.2
v 0.6 0.7 0.2
v 0.7 0.5 0.2
v 0.7 0.7 0.2
v 0.9 0.5 0.2
v 0.9 0.7 0.2
v 1 0.5 0.2
v 1 0.7 0.2
v 1.2 0.5 0.2
v 1.2 0.6 0.2
v 1.2 0.7 0.2
v 0.5 0.5 -0.1
v 0.5 0.7 -0.1
v 0.6 0.5 -0.1
v 0.6 0.7 -0.1
v 0.7 0.5 -0.1
v 0.7 0.7 -0.1
v 0.9 0.5 -0.1
v 0.9 0.7 -0.1
v 1 0.5 -0.1
v 1 0.7 -0.1
v 1.2 0.5 -0.1
v 1.2 0.6 -0.1
v 1.2 0.7 -0.1
v 0.5 0.5 -0.4
v 0.5 0.7 -0.4
v 0.6 0.5 -0.4
v 0.6 0.7 -0.4
v 0.7 0.5 -0.4
v 0.7 0.7 -0.4
v 0.9 0.5 -0.4
v 0.9 0.7 -0.4
v 1 0.5 -0.4
v 1 0.7 -0.4
v 1.2 0.5 -0.4
v 1.2 0.6 -0.4
v 1.2 0.7 -0.4
v 0.5 0.7 -0.6
v 0.5 0.8 -0.6
v 0.6 0.5 -0.6
v 0.6 0.7 -0.6
v 0.7 0.5 -0.6
v 0.7 0.7 -0.6
v 0.9 0.5 -0.6
v 0.9 0.7 -0.6
v 1 0.5 -0.6
v 1 0.7 -0.6
v 1.2 0.6 -0.6
v 1.2 0.7 -0.6
v 1.3 0.6 -0.6
v 1.3 0.8 -0.6
v 0.5 0.7 0.5
v 0.5 0.8 0.5
v 0.6 0.5 0.5
v 0.6 0.7 0.5
v 0.7 0.5 0.5
v 0.7 0.7 0.5
v 0.9 0.5 0.5
v 0.9 0.7 0.5
v 1 0.5 0.5
v 1 0.7 0.5
v 1.2 0.6 0.5
v 1.2 0.7 0.5
v 1.3 0.6 0.5
v 1.3 0.8 0.5
v 0.5 0.5 0.3
v 0.5 0.7 0.3
v 0.6 0.5 0.3
v 0.6 0.7 0.3
v 0.7 0.5 0.3
v 0.7 0.7 0.3
v 0.9 0.5 0.3
v 0.9 0.7 0.3
v 1 0.5 0.3
v 1 0.7 0.3
v 1.2 0.5 0.3
v 1.2 0.6 0.3
v 1.2 0.7 0.3
v 0.5 0.5 5.96046e-08
v 0.5 0.7 5.96046e-08
v 0.6 0.5 5.96046e-08
v 0.6 0.7 5.96046e-08
v 0.7 0.5 5.96046e-08
v 0.7 0.7 5.96046e-08
v 0.9 0.5 5.96046e-08
v 0.9 0.7 5.96046e-08
v 1 0.5 5.96046e-08
v 1 0.7 5.96046e-08
v 1.2 0.5 5.96046e-08
v 1.2 0.6 5.96046e-08
v 1.2 0.7 5.96046e-08
v 0.5 0.5 -0.3
v 0.5 0.7 -0.3
v 0.6 0.5 -0.3
v 0.6 0.7 -0.3
v 0.7 0.5 -0.3
v 0.7 0.7 -0.3
v 0.9 0.5 -0.3
v 0.9 0.7 -0.3
v 1 0.5 -0.3
v 1 0.7 -0.3
v 1.2 0.5 -0.3
v 1.2 0.6 -0.3
v 1.2 0.7 -0.3
v -1.2 0 -0.7
v -1.2 0.8 -0.7
v -1.1 0.1 -0.7
v -1.1 0.7 -0.7
v -0.4 0.9 -0.7
v -0.4 1 -0.7
v 0.2 0.8 -0.7
v 0.2 0.9 -0.7
v 0.3 0.9 -0.7
v 0.3 1 -0.7
v 0.4 0.8 -0.7
v 0.4 0.9 -0.7
v 1.2 0.1 -0.7
v 1.2 0.7 -0.7
v 1.3 0 -0.7
v 1.3 0.8 -0.7
v -1.2 0 0.6
v 1.3 0 0.6
v -1.2 0 -0.7
v 1.3 0 -0.7
v -0.4 0.9 0.6
v 0.2 0.9 0.6
v -0.3 0.9 0.5
v 0.2 0.9 0.5
v -0.3 0.9 -0.6
v 0.2 0.9 -0.6
v -0.4 0.9 -0.7
v 0.2 0.9 -0.7
v 0.6 0.5 0.5
v 0.7 0.5 0.5
v 0.9 0.5 0.5
v 1 0.5 0.5
v 0.5 0.5 0.3
v 0.6 0.5 0.3
v 0.7 0.5 0.3
v 0.9 0.5 0.3
v 1 0.5 0.3
v 1.2 0.5 0.3
v 0.5 0.5 0.2
v 0.6 0.5 0.2
v 0.7 0.5 0.2
v 0.9 0.5 0.2
v 1 0.5 0.2
v 1.2 0.5 0.2
v 0.5 0.5 5.96046e-08
v 0.6 0.5 5.96046e-08
v 0.7 0.5 5.96046e-08
v 0.9 0.5 5.96046e-08
v 1 0.5 5.96046e-08
v 1.2 0.5 5.96046e-08
v 0.5 0.5 -0.1
v 0.6 0.5 -0.1
v 0.7 0.5 -0.1
v 0.9 0.5 -0.1
v 1 0.5 -0.1
v 1.2 0.5 -0.1
v 0.5 0.5 -0.3
v 0.6 0.5 -0.3
v 0.7 0.5 -0.3
v 0.9 0.5 -0.3
v 1 0.5 -0.3
v 1.2 0.5 -0.3
v 0.5 0.5 -0.4
v 0.6 0.5 -0.4
v 0.7 0.5 -0.4
v 0.9 0.5 -0.4
v 1 0.5 -0.4
v 1.2 0.5 -0.4
v 0.6 0.5 -0.6
v 0.7 0.5 -0.6
v 0.9 0.5 -0.6
v 1 0.5 -0.6
v 1.2 0.6 0.5
v 1.3 0.6 0.5
v 1.2 0.6 0.3
v 1.2 0.6 0.2
v 1.2 0.6 5.96046e-08
v 1.2 0.6 -0.1
v 1.2 0.6 -0.3
v 1.2 0.6 -0.4
v 1.2 0.6 -0.6
v 1.3 0.6 -0.6
v 0.5 0.7 0.5
v 0.6 0.7 0.5
v 0.7 0.7 0.5
v 0.9 0.7 0.5
v 1 0.7 0.5
v 1.2 0.7 0.5
v 0.5 0.7 0.3
v 0.6 0.7 0.3
v 0.7 0.7 0.3
v 0.9 0.7 0.3
v 1 0.7 0.3
v 1.2 0.7 0.3
v 0.5 0.7 0.2
v 0.6 0.7 0.2
v 0.7 0.7 0.2
v 0.9 0.7 0.2
v 1 0.7 0.2
v 1.2 0.7 0.2
v 0.5 0.7 5.96046e-08
v 0.6 0.7 5.96046e-08
v 0.7 0.7 5.96046e-08
v 0.9 0.7 5.96046e-08
v 1 0.7 5.96046e-08
v 1.2 0.7 5.96046e-08
v 0.5 0.7 -0.1
v 0.6 0.7 -0.1
v 0.7 0.7 -0.1
v 0.9 0.7 -0.1
v 1 0.7 -0.1
v 1.2 0.7 -0.1
v 0.5 0.7 -0.3
v 0.6 0.7 -0.3
v 0.7 0.7 -0.3
v 0.9 0.7 -0.3
v 1 0.7 -0.3
v 1.2 0.7 -0.3
v 0.5 0.7 -0.4
v 0.6 0.7 -0.4
v 0.7 0.7 -0.4
v 0.9 0.7 -0.4
v 1 0.7 -0.4
v 1.2 0.7 -0.4
v 0.5 0.7 -0.6
v 0.6 0.7 -0.6
v 0.7 0.7 -0.6
v 0.9 0.7 -0.6
v 1 0.7 -0.6
v 1.2 0.7 -0.6
v -1.2 0.8 0.6
v 0.2 0.8 0.6
v 0.4 0.8 0.6
v 1.3 0.8 0.6
v -1.1 0.8 0.5
v 0.2 0.8 0.5
v 0.4 0.8 0.5
v 0.5 0.8 0.5
v 1.3 0.8 0.5
v -0.7 0.8 0.4
v -0.4 0.8 0.4
v -0.9 0.8 0.3
v -0.7 0.8 0.3
v -0.4 0.8 0.3
v -0.2 0.8 0.3
v -0.8 0.8 0.2
v -0.7 0.8 0.2
v -0.4 0.8 0.2
v -0.3 0.8 0.2
v -1 0.8 0.1
v -0.9 0.8 0.1
v -0.8 0.8 0.1
v -0.3 0.8 0.1
v -0.2 0.8 0.1
v -0.1 0.8 0.1
v -0.6 0.8 5.96046e-08
v -0.5 0.8 5.96046e-08
v -0.6 0.8 -0.1
v -0.5 0.8 -0.1
v -1 0.8 -0.2
v -0.9 0.8 -0.2
v -0.8 0.8 -0.2
v -0.3 0.8 -0.2
v -0.2 0.8 -0.2
v -0.1 0.8 -0.2
v -0.8 0.8 -0.3
v -0.7 0.8 -0.3
v -0.4 0.8 -0.3
v -0.3 0.8 -0.3
v -0.9 0.8 -0.4
v -0.7 0.8 -0.4
v -0.4 0.8 -0.4
v -0.2 0.8 -0.4
v -0.7 0.8 -0.5
v -0.4 0.8 -0.5
v -1.1 0.8 -0.6
v 0.2 0.8 -0.6
v 0.4 0.8 -0.6
v 0.5 0.8 -0.6
v 1.3 0.8 -0.6
v -1.2 0.8 -0.7
v 0.2 0.8 -0.7
v 0.4 0.8 -0.7
v 1.3 0.8 -0.7
v 0.3 0.9 0.6
v 0.4 0.9 0.6
v 0.3 0.9 0.5
v 0.4 0.9 0.5
v 0.3 0.9 -0.6
v 0.4 0.9 -0.6
v 0.3 0.9 -0.7
v 0.4 0.9 -0.7
v -0.4 1 0.6
v 0.3 1 0.6
v -0.3 1 0.5
v 0.3 1 0.5
v -0.3 1 -0.6
v 0.3 1 -0.6
v -0.4 1 -0.7
v 0.3 1 -0.7

# faces
f 3/3/1 2/3/1 1/3/1
f 4/3/1 2/3/1 3/3/1
f 5/5/1 4/5/1 3/5/1
f 6/5/1 4/5/1 5/5/1
f 7/5/1 4/5/1 6/5/1
f 8/5/1 4/5/1 7/5/1
f 9/3/1 6/3/1 5/3/1
f 9/5/1 7/5/1 6/5/1
f 10/5/1 7/5/1 9/5/1
f 11/5/1 7/5/1 10/5/1
f 12/3/1 8/3/1 7/3/1
f 12/5/1 7/5/1 11/5/1
f 13/3/1 9/3/1 5/3/1
f 13/3/1 10/3/1 9/3/1
f 14/5/1 11/5/1 10/5/1
f 14/3/1 10/3/1 13/3/1
f 15/3/1 12/3/1 11/3/1
f 15/5/1 11/5/1 14/5/1
f 16/5/1 4/5/1 8/5/1
f 16/3/1 12/3/1 15/3/1
f 16/3/1 8/3/1 12/3/1
f 17/5/1 15/5/1 14/5/1
f 17/5/1 14/5/1 13/5/1
f 17/5/1 16/5/1 15/5/1
f 18/5/1 4/5/1 16/5/1
f 18/5/1 16/5/1 17/5/1
f 19/5/1 5/5/1 3/5/1
f 19/3/1 13/3/1 5/3/1
f 20/5/1 17/5/1 13/5/1
f 20/3/1 13/3/1 19/3/1
f 21/3/1 18/3/1 17/3/1
f 21/5/1 17/5/1 20/5/1
f 22/5/1 4/5/1 18/5/1
f 22/3/1 18/3/1 21/3/1
f 23/3/1 3/3/1 1/3/1
f 23/5/1 21/5/1 20/5/1
f 23/5/1 22/5/1 21/5/1
f 23/5/1 20/5/1 19/5/1
f 23/5/1 19/5/1 3/5/1
f 24/5/1 4/5/1 22/5/1
f 24/5/1 22/5/1 23/5/1
f 24/3/1 2/3/1 4/3/1
f 25/3/1 23/3/1 1/3/1
f 25/3/1 24/3/1 23/3/1
f 26/3/1 2/3/1 24/3/1
f 26/3/1 24/3/1 25/3/1
f 29/3/1 28/3/1 27/3/1
f 30/3/1 28/3/1 29/3/1
f 35/3/1 32/3/1 31/3/1
f 35/3/1 34/3/1 33/3/1
f 35/3/1 33/3/1 32/3/1
f 36/3/1 34/3/1 35/3/1
f 37/3/1 34/3/1 36/3/1
f 38/3/1 34/3/1 37/3/1
f 47/1/1 40/1/1 39/1/1
f 48/1/1 40/1/1 47/1/1
f 49/1/1 42/1/1 41/1/1
f 50/1/1 42/1/1 49/1/1
f 51/1/1 44/1/1 43/1/1
f 52/1/1 44/1/1 51/1/1
f 53/1/1 46/1/1 45/1/1
f 54/1/1 46/1/1 53/1/1
f 63/1/1 56/1/1 55/1/1
f 64/1/1 56/1/1 63/1/1
f 65/1/1 58/1/1 57/1/1
f 66/1/1 58/1/1 65/1/1
f 67/1/1 60/1/1 59/1/1
f 68/1/1 60/1/1 67/1/1
f 69/1/1 62/1/1 61/1/1
f 70/1/1 62/1/1 69/1/1
f 77/3/1 72/3/1 71/3/1
f 78/3/1 72/3/1 77/3/1
f 79/3/1 74/3/1 73/3/1
f 80/3/1 74/3/1 79/3/1
f 81/3/1 76/3/1 75/3/1
f 82/3/1 76/3/1 81/3/1
f 83/3/2 84/3/2 87/3/2
f 84/5/2 85/5/2 88/5/2
f 87/3/2 84/3/2 88/3/2
f 85/3/2 86/3/2 89/3/2
f 88/5/2 85/5/2 89/5/2
f 89/3/2 86/3/2 90/3/2
f 91/3/2 92/3/2 95/3/2
f 92/5/2 93/5/2 96/5/2
f 95/3/2 92/3/2 96/3/2
f 93/3/2 94/3/2 97/3/2
f 96/5/2 93/5/2 97/5/2
f 97/3/2 94/3/2 98/3/2
f 99/4/2 100/4/2 106/4/2
f 106/4/2 100/4/2 107/4/2
f 101/4/2 102/4/2 108/4/2
f 108/4/2 102/4/2 109/4/2
f 103/4/2 104/4/2 110/4/2
f 110/4/2 104/4/2 111/4/2
f 108/5/2 109/5/2 113/5/2
f 111/5/2 112/5/2 113/5/2
f 110/5/2 111/5/2 113/5/2
f 109/5/2 110/5/2 113/5/2
f 106/5/2 107/5/2 113/5/2
f 107/5/2 108/5/2 113/5/2
f 105/5/2 106/5/2 113/5/2
f 113/5/2 112/5/2 114/5/2
f 115/1/2 116/1/2 123/1/2
f 123/1/2 116/1/2 124/1/2
f 117/1/2 118/1/2 125/1/2
f 125/1/2 118/1/2 126/1/2
f 119/1/2 120/1/2 127/1/2
f 127/1/2 120/1/2 128/1/2
f 121/1/2 122/1/2 129/1/2
f 129/1/2 122/1/2 130/1/2
f 131/1/2 132/1/2 139/1/2
f 139/1/2 132/1/2 140/1/2
f 133/1/2 134/1/2 141/1/2
f 141/1/2 134/1/2 142/1/2
f 135/1/2 136/1/2 143/1/2
f 143/1/2 136/1/2 144/1/2
f 137/1/2 138/1/2 145/1/2
f 145/1/2 138/1/2 146/1/2
f 147/1/2 148/1/2 155/1/2
f 155/1/2 148/1/2 156/1/2
f 149/1/2 150/1/2 157/1/2
f 157/1/2 150/1/2 158/1/2
f 151/1/2 152/1/2 159/1/2
f 159/1/2 152/1/2 160/1/2
f 153/1/2 154/1/2 161/1/2
f 161/1/2 154/1/2 162/1/2
f 163/3/2 164/3/2 165/3/2
f 165/3/2 164/3/2 166/3/2
f 165/5/2 166/5/2 167/5/2
f 167/5/2 166/5/2 168/5/2
f 168/5/2 166/5/2 169/5/2
f 169/5/2 166/5/2 170/5/2
f 165/5/2 167/5/2 171/5/2
f 167/3/2 168/3/2 171/3/2
f 168/5/2 169/5/2 172/5/2
f 171/3/2 168/3/2 172/3/2
f 169/3/2 170/3/2 173/3/2
f 172/5/2 169/5/2 173/5/2
f 170/5/2 166/5/2 174/5/2
f 173/3/2 170/3/2 174/3/2
f 163/3/2 165/3/2 175/3/2
f 171/5/2 172/5/2 175/5/2
f 165/5/2 171/5/2 175/5/2
f 172/3/2 173/3/2 176/3/2
f 175/5/2 172/5/2 176/5/2
f 173/5/2 174/5/2 177/5/2
f 176/3/2 173/3/2 177/3/2
f 174/5/2 166/5/2 178/5/2
f 177/5/2 174/5/2 178/5/2
f 166/3/2 164/3/2 178/3/2
f 176/3/2 177/3/2 179/3/2
f 175/3/2 176/3/2 179/3/2
f 177/3/2 178/3/2 179/3/2
f 163/3/2 175/3/2 179/3/2
f 178/3/2 164/3/2 180/3/2
f 179/3/2 178/3/2 180/3/2
f 163/3/2 179/3/2 181/3/2
f 181/3/2 179/3/2 182/3/2
f 180/3/2 164/3/2 183/3/2
f 183/3/2 164/3/2 184/3/2
f 187/3/3 186/3/3 185/3/3
f 188/3/3 186/3/3 187/3/3
f 191/3/3 186/3/3 188/3/3
f 192/3/3 190/3/3 189/3/3
f 193/3/3 190/3/3 192/3/3
f 193/3/3 192/3/3 191/3/3
f 194/3/3 190/3/3 193/3/3
f 195/3/3 191/3/3 188/3/3
f 195/3/3 193/3/3 191/3/3
f 196/3/3 193/3/3 195/3/3
f 197/3/3 187/3/3 185/3/3
f 197/5/3 188/5/3 187/5/3
f 198/3/3 195/3/3 188/3/3
f 198/5/3 188/5/3 197/5/3
f 199/3/3 197/3/3 185/3/3
f 199/3/3 198/3/3 197/3/3
f 200/3/3 195/3/3 198/3/3
f 200/3/3 198/3/3 199/3/3
f 203/1/3 202/1/3 201/1/3
f 204/1/3 202/1/3 203/1/3
f 207/1/3 206/1/3 205/1/3
f 208/1/3 206/1/3 207/1/3
f 211/1/3 210/1/3 209/1/3
f 212/1/3 210/1/3 211/1/3
f 213/1/3 210/1/3 212/1/3
f 216/1/3 215/1/3 214/1/3
f 217/1/3 215/1/3 216/1/3
f 220/1/3 219/1/3 218/1/3
f 221/1/3 219/1/3 220/1/3
f 224/1/3 223/1/3 222/1/3
f 225/1/3 223/1/3 224/1/3
f 226/1/3 223/1/3 225/1/3
f 229/1/3 228/1/3 227/1/3
f 230/1/3 228/1/3 229/1/3
f 233/1/3 232/1/3 231/1/3
f 234/1/3 232/1/3 233/1/3
f 237/1/3 236/1/3 235/1/3
f 238/1/3 236/1/3 237/1/3
f 239/1/3 236/1/3 238/1/3
f 243/3/3 241/3/3 240/3/3
f 244/5/3 243/5/3 242/5/3
f 245/3/3 241/3/3 243/3/3
f 245/5/3 243/5/3 244/5/3
f 247/3/3 241/3/3 245/3/3
f 248/5/3 247/5/3 246/5/3
f 249/3/3 241/3/3 247/3/3
f 249/5/3 247/5/3 248/5/3
f 251/3/3 241/3/3 249/3/3
f 252/3/3 251/3/3 250/3/3
f 253/3/3 241/3/3 251/3/3
f 253/3/3 251/3/3 252/3/3
f 254/3/4 255/3/4 257/3/4
f 256/5/4 257/5/4 258/5/4
f 257/3/4 255/3/4 259/3/4
f 258/5/4 257/5/4 259/5/4
f 259/3/4 255/3/4 261/3/4
f 260/5/4 261/5/4 262/5/4
f 261/3/4 255/3/4 263/3/4
f 262/5/4 261/5/4 263/5/4
f 263/3/4 255/3/4 265/3/4
f 264/3/4 265/3/4 266/3/4
f 265/3/4 255/3/4 267/3/4
f 266/3/4 265/3/4 267/3/4
f 268/1/4 269/1/4 270/1/4
f 270/1/4 269/1/4 271/1/4
f 272/1/4 273/1/4 274/1/4
f 274/1/4 273/1/4 275/1/4
f 276/1/4 277/1/4 278/1/4
f 278/1/4 277/1/4 279/1/4
f 279/1/4 277/1/4 280/1/4
f 281/1/4 282/1/4 283/1/4
f 283/1/4 282/1/4 284/1/4
f 285/1/4 286/1/4 287/1/4
f 287/1/4 286/1/4 288/1/4
f 289/1/4 290/1/4 291/1/4
f 291/1/4 290/1/4 292/1/4
f 292/1/4 290/1/4 293/1/4
f 294/1/4 295/1/4 296/1/4
f 296/1/4 295/1/4 297/1/4
f 298/1/4 299/1/4 300/1/4
f 300/1/4 299/1/4 301/1/4
f 302/1/4 303/1/4 304/1/4
f 304/1/4 303/1/4 305/1/4
f 305/1/4 303/1/4 306/1/4
f 307/3/4 308/3/4 309/3/4
f 309/3/4 308/3/4 310/3/4
f 310/3/4 308/3/4 313/3/4
f 311/3/4 312/3/4 314/3/4
f 314/3/4 312/3/4 315/3/4
f 313/3/4 314/3/4 315/3/4
f 315/3/4 312/3/4 316/3/4
f 310/3/4 313/3/4 317/3/4
f 313/3/4 315/3/4 317/3/4
f 317/3/4 315/3/4 318/3/4
f 307/3/4 309/3/4 319/3/4
f 309/5/4 310/5/4 319/5/4
f 310/3/4 317/3/4 320/3/4
f 319/5/4 310/5/4 320/5/4
f 307/3/4 319/3/4 321/3/4
f 319/3/4 320/3/4 321/3/4
f 320/3/4 317/3/4 322/3/4
f 321/3/4 320/3/4 322/3/4
f 325/3/5 324/3/5 323/3/5
f 326/3/5 324/3/5 325/3/5
f 329/3/5 328/3/5 327/3/5
f 330/3/5 328/3/5 329/3/5
f 331/3/5 329/3/5 327/3/5
f 331/5/5 330/5/5 329/5/5
f 332/5/5 330/5/5 331/5/5
f 333/3/5 331/3/5 327/3/5
f 333/3/5 332/3/5 331/3/5
f 334/3/5 332/3/5 333/3/5
f 335/4/6 336/4/6 340/4/6
f 340/4/6 336/4/6 341/4/6
f 337/4/6 338/4/6 342/4/6
f 342/4/6 338/4/6 343/4/6
f 340/4/6 341/4/6 345/4/6
f 343/4/6 344/4/6 345/4/6
f 342/4/6 343/4/6 345/4/6
f 341/4/6 342/4/6 345/4/6
f 339/4/6 340/4/6 345/4/6
f 345/4/6 344/4/6 346/4/6
f 346/4/6 344/4/6 347/4/6
f 347/4/6 344/4/6 348/4/6
f 348/4/6 344/4/6 349/4/6
f 349/4/6 344/4/6 350/4/6
f 346/4/6 347/4/6 352/4/6
f 352/4/6 347/4/6 353/4/6
f 348/4/6 349/4/6 354/4/6
f 354/4/6 349/4/6 355/4/6
f 352/4/6 353/4/6 357/4/6
f 355/4/6 356/4/6 357/4/6
f 354/4/6 355/4/6 357/4/6
f 353/4/6 354/4/6 357/4/6
f 351/4/6 352/4/6 357/4/6
f 357/4/6 356/4/6 358/4/6
f 358/4/6 356/4/6 359/4/6
f 359/4/6 356/4/6 360/4/6
f 360/4/6 356/4/6 361/4/6
f 361/4/6 356/4/6 362/4/6
f 358/4/6 359/4/6 364/4/6
f 364/4/6 359/4/6 365/4/6
f 360/4/6 361/4/6 366/4/6
f 366/4/6 361/4/6 367/4/6
f 364/4/6 365/4/6 369/4/6
f 367/4/6 368/4/6 369/4/6
f 366/4/6 367/4/6 369/4/6
f 365/4/6 366/4/6 369/4/6
f 363/4/6 364/4/6 369/4/6
f 369/4/6 368/4/6 370/4/6
f 370/4/6 368/4/6 371/4/6
f 371/4/6 368/4/6 372/4/6
f 372/4/6 368/4/6 373/4/6
f 373/4/6 368/4/6 374/4/6
f 370/4/6 371/4/6 375/4/6
f 375/4/6 371/4/6 376/4/6
f 372/4/6 373/4/6 377/4/6
f 377/4/6 373/4/6 378/4/6
f 379/3/6 380/3/6 381/3/6
f 381/3/6 380/3/6 382/3/6
f 382/3/6 380/3/6 383/3/6
f 383/3/6 380/3/6 384/3/6
f 384/3/6 380/3/6 385/3/6
f 385/3/6 380/3/6 386/3/6
f 386/3/6 380/3/6 387/3/6
f 387/3/6 380/3/6 388/3/6
f 389/1/6 390/1/6 395/1/6
f 395/1/6 390/1/6 396/1/6
f 391/1/6 392/1/6 397/1/6
f 397/1/6 392/1/6 398/1/6
f 393/1/6 394/1/6 399/1/6
f 399/1/6 394/1/6 400/1/6
f 401/1/6 402/1/6 407/1/6
f 407/1/6 402/1/6 408/1/6
f 403/1/6 404/1/6 409/1/6
f 409/1/6 404/1/6 410/1/6
f 405/1/6 406/1/6 411/1/6
f 411/1/6 406/1/6 412/1/6
f 413/1/6 414/1/6 419/1/6
f 419/1/6 414/1/6 420/1/6
f 415/1/6 416/1/6 421/1/6
f 421/1/6 416/1/6 422/1/6
f 417/1/6 418/1/6 423/1/6
f 423/1/6 418/1/6 424/1/6
f 425/1/6 426/1/6 431/1/6
f 431/1/6 426/1/6 432/1/6
f 427/1/6 428/1/6 433/1/6
f 433/1/6 428/1/6 434/1/6
f 429/1/6 430/1/6 435/1/6
f 435/1/6 430/1/6 436/1/6
f 437/3/6 438/3/6 441/3/6
f 441/3/6 438/3/6 442/3/6
f 439/3/6 440/3/6 443/3/6
f 443/3/6 440/3/6 444/3/6
f 444/3/6 440/3/6 445/3/6
f 441/5/6 442/5/6 446/5/6
f 446/5/6 442/5/6 447/5/6
f 441/5/6 446/5/6 448/5/6
f 446/3/6 447/3/6 449/3/6
f 448/5/6 446/5/6 449/5/6
f 447/5/6 442/5/6 450/5/6
f 449/3/6 447/3/6 450/3/6
f 450/5/6 442/5/6 451/5/6
f 448/3/6 449/3/6 452/3/6
f 449/5/6 450/5/6 453/5/6
f 452/3/6 449/3/6 453/3/6
f 450/3/6 451/3/6 454/3/6
f 453/5/6 450/5/6 454/5/6
f 454/3/6 451/3/6 455/3/6
f 441/5/6 448/5/6 456/5/6
f 448/3/6 452/3/6 457/3/6
f 456/5/6 448/5/6 457/5/6
f 452/5/6 453/5/6 458/5/6
f 457/3/6 452/3/6 458/3/6
f 453/5/6 454/5/6 458/5/6
f 454/5/6 455/5/6 458/5/6
f 455/3/6 451/3/6 459/3/6
f 458/5/6 455/5/6 459/5/6
f 451/5/6 442/5/6 460/5/6
f 459/3/6 451/3/6 460/3/6
f 460/5/6 442/5/6 461/5/6
f 458/5/6 459/5/6 462/5/6
f 457/5/6 458/5/6 462/5/6
f 459/5/6 460/5/6 462/5/6
f 462/5/6 460/5/6 463/5/6
f 457/5/6 462/5/6 464/5/6
f 462/3/6 463/3/6 464/3/6
f 463/5/6 460/5/6 465/5/6
f 464/3/6 463/3/6 465/3/6
f 441/5/6 456/5/6 466/5/6
f 456/3/6 457/3/6 466/3/6
f 464/5/6 465/5/6 467/5/6
f 466/3/6 457/3/6 467/3/6
f 457/5/6 464/5/6 467/5/6
f 467/5/6 465/5/6 468/5/6
f 465/5/6 460/5/6 469/5/6
f 468/5/6 465/5/6 469/5/6
f 460/3/6 461/3/6 470/3/6
f 469/5/6 460/5/6 470/5/6
f 461/5/6 442/5/6 471/5/6
f 470/3/6 461/3/6 471/3/6
f 468/5/6 469/5/6 472/5/6
f 467/3/6 468/3/6 472/3/6
f 472/5/6 469/5/6 473/5/6
f 473/5/6 469/5/6 474/5/6
f 469/3/6 470/3/6 475/3/6
f 474/5/6 469/5/6 475/5/6
f 466/5/6 467/5/6 476/5/6
f 467/3/6 472/3/6 476/3/6
f 472/3/6 473/3/6 476/3/6
f 473/5/6 474/5/6 477/5/6
f 476/3/6 473/3/6 477/3/6
f 474/3/6 475/3/6 478/3/6
f 477/5/6 474/5/6 478/5/6
f 470/5/6 471/5/6 479/5/6
f 478/3/6 475/3/6 479/3/6
f 475/3/6 470/3/6 479/3/6
f 477/3/6 478/3/6 480/3/6
f 476/5/6 477/5/6 480/5/6
f 478/5/6 479/5/6 481/5/6
f 480/3/6 478/3/6 481/3/6
f 437/3/6 441/3/6 482/3/6
f 466/5/6 476/5/6 482/5/6
f 480/5/6 481/5/6 482/5/6
f 476/5/6 480/5/6 482/5/6
f 441/5/6 466/5/6 482/5/6
f 481/5/6 479/5/6 483/5/6
f 482/5/6 481/5/6 483/5/6
f 479/5/6 471/5/6 483/5/6
f 471/5/6 442/5/6 483/5/6
f 443/5/6 444/5/6 484/5/6
f 484/5/6 444/5/6 485/5/6
f 437/3/6 482/3/6 487/3/6
f 482/3/6 483/3/6 487/3/6
f 487/3/6 483/3/6 488/3/6
f 485/3/6 486/3/6 489/3/6
f 484/3/6 485/3/6 489/3/6
f 489/3/6 486/3/6 490/3/6
f 491/3/6 492/3/6 493/3/6
f 493/3/6 492/3/6 494/3/6
f 493/5/6 494/5/6 495/5/6
f 495/5/6 494/5/6 496/5/6
f 495/3/6 496/3/6 497/3/6
f 497/3/6 496/3/6 498/3/6
f 499/3/6 500/3/6 501/3/6
f 501/3/6 500/3/6 502/3/6
f 499/3/6 501/3/6 503/3/6
f 501/5/6 502/5/6 503/5/6
f 503/5/6 502/5/6 504/5/6
f 499/3/6 503/3/6 505/3/6
f 503/3/6 504/3/6 505/3/6
f 505/3/6 504/3/6 506/3/6
